<?xml version="1.0" encoding="utf-8"?>
<!-- Generator: Adobe Illustrator 17.1.0, SVG Export Plug-In . SVG Version: 6.00 Build 0)  -->
<!DOCTYPE svg PUBLIC "-//W3C//DTD SVG 1.1//EN" "http://www.w3.org/Graphics/SVG/1.1/DTD/svg11.dtd">
<svg version="1.1" id="perfume-bottle" xmlns="http://www.w3.org/2000/svg" xmlns:xlink="http://www.w3.org/1999/xlink" x="0px"
	 y="0px" viewBox="0 0 43.416 60" enable-background="new 0 0 43.416 60" xml:space="preserve">
<g>
	<g>
		<polygon fill="#FBD0C4" points="5.3994,17.584 1,21.9834 1,54.6006 5.3994,59 38.0176,59 42.416,54.6006 42.416,21.9834 
			38.0176,17.584 37.7412,17.584 		"/>
		<g>
			<path fill="#43525B" d="M38.0176,60H5.3994c-0.2651,0-0.5195-0.1055-0.707-0.293L0.293,55.3076
				C0.1055,55.1201,0,54.8662,0,54.6006V21.9834c0-0.2656,0.1055-0.5195,0.293-0.707l4.3994-4.3994
				c0.1875-0.1875,0.4419-0.293,0.707-0.293h32.6182c0.2651,0,0.5195,0.1055,0.707,0.293l4.3984,4.3994
				c0.1875,0.1875,0.293,0.4414,0.293,0.707v32.6172c0,0.2656-0.1055,0.5195-0.293,0.707l-4.3984,4.3994
				C38.5371,59.8945,38.2827,60,38.0176,60L38.0176,60z M5.8135,58h31.79l3.8125-3.8135v-31.789l-3.8125-3.8135h-31.79L2,22.3975
				v31.789L5.8135,58L5.8135,58z"/>
		</g>
	</g>
	<g>
		<polygon fill="#FFFFFF" points="28.4902,11.875 32.583,8.2949 32.583,4.5801 28.4902,1 14.9268,1 10.833,4.5801 10.833,8.2949 
			14.9268,11.875 		"/>
		<polyline fill="#CCCCCC" points="10.833,6.4375 10.833,8.2949 14.9268,11.875 28.4902,11.875 32.583,8.2949 32.583,6.4375 		"/>
		<g>
			<path fill="#43525B" d="M28.4902,12.875H14.9268c-0.2422,0-0.4761-0.0879-0.6582-0.2471l-4.0938-3.58
				C9.9575,8.8574,9.833,8.583,9.833,8.2949V4.5801c0-0.2881,0.1245-0.5625,0.3418-0.753l4.0938-3.58
				C14.4507,0.0879,14.6846,0,14.9268,0h13.5634c0.2422,0,0.4761,0.0879,0.6582,0.2471l4.0928,3.58
				c0.2173,0.1905,0.3418,0.4649,0.3418,0.753v3.7148c0,0.2881-0.1245,0.5625-0.3418,0.753l-4.0928,3.58
				C28.9663,12.7871,28.7324,12.875,28.4902,12.875L28.4902,12.875z M15.3022,10.875h12.8125l3.4683-3.0342V5.0342L28.1147,2
				H15.3022L11.833,5.0342v2.8066L15.3022,10.875L15.3022,10.875z"/>
		</g>
		<g>
			<path fill="#43525B" d="M23.0176,9.1484h-6.336l-0.646-0.2363l-2.0225-1.7109c-0.4214-0.3565-0.4741-0.9883-0.1177-1.4092
				c0.3574-0.4219,0.9873-0.4736,1.4097-0.1182l1.7427,1.4746h5.9698c0.5522,0,1,0.4473,1,1
				C24.0176,8.7012,23.5698,9.1484,23.0176,9.1484L23.0176,9.1484z"/>
		</g>
	</g>
	<g>
		<path fill="#43525B" d="M29.4873,15.6699H13.9297c-0.5522,0-1-0.4472-1-1c0-0.5527,0.4478-1,1-1h15.5576c0.5522,0,1,0.4473,1,1
			C30.4873,15.2227,30.0395,15.6699,29.4873,15.6699L29.4873,15.6699z"/>
	</g>
	<g>
		<g>
			<path fill="#43525B" d="M11.0596,28.3574c-0.2559,0-0.5117-0.0976-0.707-0.2929l-7.0996-7.0997
				c-0.3906-0.3906-0.3906-1.0234,0-1.414c0.3906-0.3906,1.0234-0.3906,1.4141,0l7.0996,7.0996
				c0.3906,0.3906,0.3906,1.0234,0,1.4141C11.5713,28.2598,11.3154,28.3574,11.0596,28.3574L11.0596,28.3574z"/>
		</g>
		<g>
			<path fill="#43525B" d="M32.3564,28.3574c-0.2558,0-0.5117-0.0976-0.707-0.2929c-0.3906-0.3907-0.3906-1.0235,0-1.4141
				l7.0986-7.0996c0.3907-0.3906,1.0235-0.3906,1.4141,0c0.3906,0.3906,0.3906,1.0234,0,1.414l-7.0986,7.0997
				C32.8682,28.2598,32.6123,28.3574,32.3564,28.3574L32.3564,28.3574z"/>
		</g>
		<g>
			<path fill="#43525B" d="M3.9599,57.3564c-0.2559,0-0.5117-0.0976-0.707-0.2929c-0.3906-0.3906-0.3906-1.0235,0-1.4141
				l7.0996-7.0986c0.3906-0.3906,1.0234-0.3906,1.4141,0c0.3906,0.3906,0.3906,1.0234,0,1.414L4.667,57.0635
				C4.4717,57.2588,4.2158,57.3564,3.9599,57.3564L3.9599,57.3564z"/>
		</g>
		<g>
			<path fill="#43525B" d="M39.4551,57.3564c-0.2559,0-0.5117-0.0976-0.7071-0.2929l-7.0986-7.0987
				c-0.3906-0.3906-0.3906-1.0234,0-1.414c0.3906-0.3906,1.0234-0.3906,1.4141,0l7.0986,7.0986
				c0.3906,0.3906,0.3906,1.0235,0,1.4141C39.9668,57.2588,39.7109,57.3564,39.4551,57.3564L39.4551,57.3564z"/>
		</g>
	</g>
	<g>
		<rect x="9.624" y="26.4883" fill="#C0DFCF" width="24.167" height="24.167"/>
		<g>
			<path fill="#43525B" d="M34.791,51.6553H8.624v-26.167h26.167V51.6553L34.791,51.6553z M10.624,49.6553h22.167v-22.167H10.624
				V49.6553L10.624,49.6553z"/>
		</g>
	</g>
	<g>
		<g>
			<path fill="#FFA8A6" d="M24.2226,39.4062l1.2549,1.0782l3.3213-2.9141c0.6387-0.5566,1.1104-1.2871,1.3135-2.1133
				c0.1465-0.6035,0.0811-0.9414,0.0811-0.9414c-0.125-1.3535-1.1143-2.4863-2.4903-2.4863c-1.0185,0-1.8408,0.6103-2.2256,1.4902
				c-0.3828-0.8799-1.2627-1.4902-2.2802-1.4902c-1.376,0-2.3692,1.1328-2.4932,2.4863c0,0-0.0664,0.3379,0.082,0.9414"/>
			<g>
				<path fill="#43525B" d="M25.4775,41.4844c-0.2319,0-0.4643-0.0801-0.6518-0.2412l-1.2549-1.0782
					c-0.419-0.3603-0.4668-0.9912-0.1065-1.4101c0.3604-0.419,0.9908-0.4668,1.4102-0.1074l0.5962,0.5127l2.6685-2.3418
					c0.5078-0.4424,0.853-0.9952,1.0019-1.5997c0.0855-0.3515,0.0645-0.5478,0.0645-0.5498
					c-0.0806-0.8457-0.6172-1.6396-1.5025-1.6396c-0.5762,0-1.0654,0.333-1.3096,0.8906c-0.1591,0.3643-0.5185,0.5996-0.916,0.5996
					c-0.0005,0-0.0005,0-0.0005,0c-0.3979,0-0.7578-0.2363-0.9165-0.6006c-0.2348-0.541-0.77-0.8896-1.3632-0.8896
					c-0.8882,0-1.4253,0.7939-1.4976,1.5771c-0.0029,0.0332-0.0073,0.0665-0.0137,0.0987c0.0015-0.0059-0.0239,0.125,0.0713,0.5127
					c0.1319,0.5371-0.1963,1.0781-0.7324,1.2099c-0.5352,0.1387-1.0776-0.1943-1.21-0.7314
					c-0.1631-0.6631-0.1309-1.1162-0.1035-1.3067c0.1924-1.9179,1.6851-3.3603,3.4859-3.3603c0.8505,0,1.6508,0.3076,2.2705,0.8379
					c0.6074-0.5342,1.3891-0.8379,2.2353-0.8379c1.8086,0,3.3071,1.459,3.4859,3.3945c0.0112,0.0313,0.0786,0.5127-0.105,1.2696
					c-0.2481,1.0097-0.8111,1.9189-1.628,2.6308l-3.3188,2.9121C25.9482,41.4014,25.7129,41.4844,25.4775,41.4844L25.4775,41.4844z"
					/>
			</g>
		</g>
		<g>
			<path fill="#FFFFFF" d="M18.582,37.418c-0.4346-0.9864-1.416-1.6797-2.5625-1.6797c-1.54,0-2.6514,1.2773-2.7969,2.7949
				c0,0-0.0703,0.377,0.0947,1.0566c0.2256,0.9258,0.7578,1.7461,1.4726,2.3731l3.792,3.2656l3.7266-3.2656
				c0.7168-0.627,1.2451-1.4473,1.4717-2.3731c0.166-0.6796,0.0937-1.0566,0.0937-1.0566
				c-0.1406-1.5176-1.2529-2.7949-2.7959-2.7949C19.9316,35.7383,19.0137,36.4316,18.582,37.418z"/>
			<g>
				<path fill="#43525B" d="M18.582,46.2285c-0.2324,0-0.4648-0.081-0.6523-0.2422l-3.792-3.2656
					c-0.9067-0.7949-1.5239-1.7939-1.792-2.8945c-0.2002-0.8242-0.1318-1.3389-0.106-1.4766
					c0.1899-2.0205,1.8198-3.6113,3.7798-3.6113c0.9605,0,1.8643,0.3642,2.5508,0.9883c0.6709-0.6289,1.5518-0.9883,2.5078-0.9883
					c1.9658,0,3.5962,1.5918,3.7915,3.7031c0.0132,0.042,0.084,0.5586-0.1177,1.3857c-0.2705,1.1055-0.8876,2.1036-1.7851,2.8887
					l-3.7256,3.2647C19.0527,46.1455,18.8174,46.2285,18.582,46.2285L18.582,46.2285z M16.0195,36.7383
					c-1.0635,0-1.7114,0.9512-1.8013,1.8906c-0.0073,0.0576-0.0337,0.2949,0.0708,0.7246c0.1704,0.6983,0.5713,1.3408,1.1602,1.8574
					l3.127,2.6934l3.0732-2.6934c0.5869-0.5136,0.9873-1.1562,1.1597-1.8584c0.104-0.4267,0.0776-0.6621,0.0771-0.664
					c-0.0947-1.001-0.7412-1.9502-1.8081-1.9502c-0.6934,0-1.2837,0.4043-1.5801,1.081c-0.1592,0.3633-0.5181,0.5977-0.9145,0.5987
					c-0.0005,0-0.001,0-0.0015,0c-0.3965,0-0.7554-0.2344-0.915-0.5967C17.3769,37.1631,16.7305,36.7383,16.0195,36.7383
					L16.0195,36.7383z"/>
			</g>
		</g>
	</g>
</g>
</svg>
