<?xml version="1.0" encoding="utf-8"?>
<!-- Generator: Adobe Illustrator 17.1.0, SVG Export Plug-In . SVG Version: 6.00 Build 0)  -->
<!DOCTYPE svg PUBLIC "-//W3C//DTD SVG 1.1//EN" "http://www.w3.org/Graphics/SVG/1.1/DTD/svg11.dtd">
<svg version="1.1" id="eiffeltower-hearts" xmlns="http://www.w3.org/2000/svg" xmlns:xlink="http://www.w3.org/1999/xlink" x="0px"
	 y="0px" viewBox="0 0 48.0018 59.9657" enable-background="new 0 0 48.0018 59.9657" xml:space="preserve">
<g>
	<g>
		<path fill="#ECE9E6" d="M31.5039,10.8827c0,23.8818,7.1787,40.376,15.4981,48.083h-8.3115v-3.1182
			c0-4.997-3.9942-9.0507-8.9942-9.0507c-5.001,0-8.9951,4.0537-8.9951,9.0507v3.1182h-8.8223
			c8.3194-7.707,15.5-24.083,15.5-47.9639"/>
		<g>
			<rect x="25.751" y="29.0438" fill="#CCCCCC" width="7.5" height="2.7188"/>
			<rect x="26.876" y="10.7938" fill="#CCCCCC" width="4.75" height="2.7188"/>
			<rect x="23.376" y="39.2938" fill="#CCCCCC" width="11.875" height="2.7188"/>
		</g>
		<g>
			<polygon fill="#ECE9E6" points="25.586,10.1434 33.2949,10.1434 33.2949,7.4686 29.4395,0.9657 25.586,7.4686 			"/>
			<g>
				<path fill="#43525B" d="M33.2949,11.1434H25.586c-0.5528,0-1-0.4477-1-1V7.4686c0-0.1792,0.0478-0.3554,0.1396-0.5097
					l3.8535-6.503c0.3594-0.6074,1.3594-0.6084,1.7207,0l3.8555,6.503c0.0918,0.1543,0.1396,0.33,0.1396,0.5097v2.6748
					C34.2949,10.6957,33.8477,11.1434,33.2949,11.1434L33.2949,11.1434z M26.586,9.1434h5.7089V7.7426l-2.8554-4.8155L26.586,7.7426
					V9.1434L26.586,9.1434z"/>
			</g>
		</g>
		<g>
			<g>
				<path fill="#43525B" d="M47.002,59.9657h-8.3115c-0.5528,0-1-0.4478-1-1v-3.1182c0-4.4394-3.586-8.0507-7.9942-8.0507
					s-7.9951,3.6113-7.9951,8.0507v3.1182c0,0.5522-0.4473,1-1,1h-8.8223c-0.4111,0-0.7812-0.252-0.9306-0.6353
					c-0.1504-0.3828-0.0508-0.8188,0.2509-1.0981c9.5049-8.8057,15.1797-26.4619,15.1797-47.2305c0-0.5522,0.4473-1,1-1
					c0.5528,0,1,0.4478,1,1c0,20.0474-5.2304,37.3423-14.0937,46.9639h5.416v-2.1182c0-5.542,4.4834-10.0507,9.9951-10.0507
					c5.5108,0,9.9942,4.5087,9.9942,10.0507v2.1182h4.9062c-8.8623-9.626-14.0928-26.9644-14.0928-47.083c0-0.5523,0.4473-1,1-1
					c0.5528,0,1,0.4477,1,1c0,20.8442,5.6739,38.5449,15.1778,47.3496c0.3017,0.2793,0.4013,0.7153,0.2509,1.0981
					C47.7832,59.7137,47.4131,59.9657,47.002,59.9657L47.002,59.9657z"/>
			</g>
			<g>
				<path fill="#43525B" d="M41.2588,39.4081h-23.126c-0.5527,0-1-0.4478-1-1c0-0.5523,0.4473-1,1-1h23.126c0.5527,0,1,0.4477,1,1
					C42.2588,38.9603,41.8115,39.4081,41.2588,39.4081L41.2588,39.4081z"/>
			</g>
			<g>
				<path fill="#43525B" d="M34.835,29.1303H24.5567c-0.5528,0-1-0.4478-1-1c0-0.5523,0.4472-1,1-1H34.835c0.5527,0,1,0.4477,1,1
					C35.835,28.6825,35.3877,29.1303,34.835,29.1303L34.835,29.1303z"/>
			</g>
		</g>
	</g>
	<g>
		<g>
			<path fill="#FBD0C4" d="M8.6729,20.5692c-0.6973-0.6142-1.167-1.3711-1.3682-2.1958c-0.0293-0.1196-0.0517-0.2348-0.0683-0.3481
				L7.1231,17.912l0.0967-0.5127c0.1201-1.2857,1.0449-2.5825,2.58-2.5825c1.0244,0,1.9522,0.6069,2.3653,1.5473
				c0.417-0.9541,1.2998-1.5473,2.3037-1.5473c1.3535,0,2.4424,1.1089,2.5888,2.6362l0,0c0.0235,0.2398-0.0078,0.5684-0.0918,0.9141
				c-0.2041,0.832-0.6728,1.5893-1.3584,2.1923l-3.4423,3.0167L8.6729,20.5692z"/>
			<path fill="#FFA8A6" d="M17.5547,17.9696l-0.4707-0.2788l-0.0674-0.4605c-0.1592-1.0869-0.8486-1.9594-1.7968-2.2763
				l-0.8018-0.2676l0.1435-0.8315c0.1104-1.2056,0.9795-2.0757,2.0694-2.0757c0.8232,0,1.5664,0.4878,1.8955,1.2422
				c0.334-0.7661,1.042-1.2422,1.8506-1.2422c1.0849,0,1.956,0.893,2.0732,2.1235c0.0098,0.1392,0.0098,0.3804-0.0742,0.7261
				c-0.1631,0.6709-0.541,1.2783-1.0908,1.7583l-2.7588,2.4194L17.5547,17.9696z"/>
		</g>
		<g>
			<g>
				<path fill="#43525B" d="M18.5264,19.8065c-0.2324,0-0.4649-0.0805-0.6524-0.2422l-1.041-0.8965
					c-0.4189-0.3603-0.4658-0.9917-0.1054-1.4101c0.3613-0.4204,0.9931-0.4653,1.4101-0.1055l0.3828,0.3296l2.1075-1.8481
					c0.3945-0.3443,0.6621-0.7725,0.7763-1.2403c0.0625-0.2544,0.0498-0.3925,0.0498-0.394
					c-0.0595-0.6367-0.4433-1.2202-1.0771-1.2202c-0.4102,0-0.7588,0.2397-0.9336,0.6411c-0.1592,0.3647-0.5186,0.6011-0.916,0.6011
					c-0.001,0-0.001,0-0.001,0c-0.3975,0-0.7578-0.2354-0.916-0.6001c-0.1709-0.3902-0.5547-0.6421-0.9795-0.6421
					c-0.6348,0-1.0195,0.5835-1.0713,1.1596c-0.0029,0.0332-0.0078,0.0665-0.0137,0.0992c0-0.001,0-0.0015,0-0.0015
					c0.0039,0,0.002,0.1348,0.0557,0.3584c0.1299,0.5371-0.1992,1.0776-0.7363,1.2075c-0.5362,0.1314-1.0782-0.1987-1.2071-0.7358
					c-0.1377-0.5674-0.1123-0.9639-0.0879-1.1411c0.168-1.6822,1.4786-2.9463,3.0606-2.9463c0.6972,0,1.3564,0.2363,1.8847,0.6479
					c0.5176-0.4145,1.1641-0.6479,1.8614-0.6479c1.581,0,2.8906,1.2636,3.0576,2.9453c0.0264,0.1792,0.0518,0.5766-0.0869,1.1435
					c-0.2129,0.8706-0.6983,1.6558-1.4033,2.271l-2.7588,2.4195C18.9971,19.7235,18.7617,19.8065,18.5264,19.8065L18.5264,19.8065z"
					/>
			</g>
			<g>
				<path fill="#43525B" d="M12.1651,24.5761c-0.2325,0-0.4649-0.0806-0.6524-0.2422l-3.5019-3.0147
					c-0.8506-0.7505-1.4278-1.685-1.6787-2.7109c-0.1661-0.6846-0.1319-1.1475-0.1036-1.3413
					c0.2002-1.9693,1.7295-3.4502,3.5713-3.4502c0.8828,0,1.7139,0.3247,2.3535,0.8828c0.626-0.5625,1.4366-0.8828,2.3155-0.8828
					c1.8535,0,3.3916,1.4985,3.5771,3.4858c0.0108,0.0342,0.0801,0.5249-0.1094,1.3037c-0.2519,1.0308-0.8291,1.9658-1.6709,2.7056
					l-3.4414,3.0161C12.6358,24.4935,12.4004,24.5761,12.1651,24.5761L12.1651,24.5761z M8.2022,17.5873
					c0.0029,0-0.0108,0.2012,0.0732,0.5473c0.1533,0.626,0.5166,1.2066,1.0498,1.6773l2.834,2.4394l2.7871-2.4419
					c0.5303-0.4667,0.8936-1.0473,1.0469-1.6767c0.0908-0.3745,0.0693-0.5816,0.0683-0.5835
					c-0.0849-0.8916-0.6542-1.7324-1.5927-1.7324c-0.6094,0-1.128,0.354-1.3877,0.9477c-0.1582,0.3638-0.5176,0.5991-0.9151,0.5996
					h-0.0009c-0.3965,0-0.7559-0.2348-0.9161-0.5981c-0.2529-0.5767-0.8212-0.9492-1.4492-0.9492
					c-0.9375,0-1.5058,0.8408-1.583,1.6714c-0.0039,0.0337-0.0088,0.0669-0.0146,0.0996V17.5873L8.2022,17.5873z"/>
			</g>
		</g>
	</g>
	<g>
		<g>
			<circle fill="#C0DFCF" cx="7.7661" cy="41.1552" r="6.7661"/>
			<g>
				<path fill="#43525B" d="M7.7666,48.9227C3.4844,48.9227,0,45.4384,0,41.1552c0-4.2823,3.4844-7.7657,7.7666-7.7657
					c4.2823,0,7.7657,3.4834,7.7657,7.7657C15.5323,45.4384,12.0489,48.9227,7.7666,48.9227L7.7666,48.9227z M7.7666,35.3895
					C4.5869,35.3895,2,37.976,2,41.1552c0,3.1801,2.5869,5.7675,5.7666,5.7675c3.1787,0,5.7657-2.5874,5.7657-5.7675
					C13.5323,37.976,10.9453,35.3895,7.7666,35.3895L7.7666,35.3895z"/>
			</g>
		</g>
		<g>
			<g>
				<path fill="#43525B" d="M7.7666,46.6981c-0.2558,0-0.5117-0.0976-0.707-0.2929c-0.3906-0.3907-0.3906-1.0235,0-1.4141
					l4.0029-4.0029c0.3906-0.3907,1.0235-0.3907,1.4141,0c0.3906,0.3906,0.3906,1.0234,0,1.414l-4.0029,4.003
					C8.2783,46.6005,8.0225,46.6981,7.7666,46.6981L7.7666,46.6981z"/>
			</g>
			<g>
				<path fill="#43525B" d="M7.7666,46.6981c-0.2558,0-0.5117-0.0976-0.707-0.2929l-4.0039-4.003
					c-0.3906-0.3901-0.3906-1.0234,0-1.414c0.3906-0.3907,1.0234-0.3907,1.4141,0l4.0039,4.0029
					c0.3906,0.3901,0.3906,1.0234,0,1.4141C8.2783,46.6005,8.0225,46.6981,7.7666,46.6981L7.7666,46.6981z"/>
			</g>
			<g>
				<path fill="#43525B" d="M7.7666,59.9657c-0.5527,0-1-0.4478-1-1V45.6981c0-0.5522,0.4473-1,1-1c0.5528,0,1,0.4478,1,1v13.2676
					C8.7666,59.5179,8.3194,59.9657,7.7666,59.9657L7.7666,59.9657z"/>
			</g>
		</g>
	</g>
</g>
</svg>
